<mxfile host="Electron" modified="2024-01-02T14:01:50.637Z" agent="Mozilla/5.0 (Windows NT 10.0; Win64; x64) AppleWebKit/537.36 (KHTML, like Gecko) draw.io/22.1.11 Chrome/114.0.5735.289 Electron/25.9.8 Safari/537.36" etag="i9Dov5aUafa5Jif3W2_i" version="22.1.11" type="device">
  <diagram id="UMy5eUy4HfaJKBZY5lJI" name="Страница 1">
    <mxGraphModel dx="1410" dy="828" grid="1" gridSize="10" guides="1" tooltips="1" connect="1" arrows="1" fold="1" page="1" pageScale="1" pageWidth="3300" pageHeight="2339" math="0" shadow="0">
      <root>
        <mxCell id="0" />
        <mxCell id="1" parent="0" />
        <mxCell id="lEt3xl3odOf_mdOtd7cn-1" value="&lt;span style=&quot;font-size: 40px;&quot;&gt;Пользователь&lt;/span&gt;" style="shape=umlActor;verticalLabelPosition=bottom;verticalAlign=top;html=1;outlineConnect=0;strokeWidth=4;fontFamily=GOST type B;fontStyle=2" parent="1" vertex="1">
          <mxGeometry x="209" y="227" width="110.01" height="190" as="geometry" />
        </mxCell>
        <mxCell id="lEt3xl3odOf_mdOtd7cn-12" value="&lt;font color=&quot;#000000&quot; style=&quot;font-size: 30px;&quot;&gt;Страница&lt;br style=&quot;font-size: 30px;&quot;&gt;логина&lt;br style=&quot;font-size: 30px;&quot;&gt;&lt;/font&gt;" style="rounded=0;whiteSpace=wrap;html=1;strokeColor=#000000;strokeWidth=5;fontSize=30;fillColor=#ffffff;fontColor=#ffffff;fontFamily=GOST type B;fontStyle=2" parent="1" vertex="1">
          <mxGeometry x="605" y="266" width="240" height="160" as="geometry" />
        </mxCell>
        <mxCell id="lEt3xl3odOf_mdOtd7cn-25" value="&lt;font color=&quot;#000000&quot; style=&quot;font-size: 30px;&quot;&gt;&lt;span style=&quot;font-size: 30px;&quot;&gt;Страница&lt;br style=&quot;font-size: 30px;&quot;&gt;списка чатов&lt;br style=&quot;font-size: 30px;&quot;&gt;&lt;/span&gt;&lt;/font&gt;" style="rounded=0;whiteSpace=wrap;html=1;strokeColor=#000000;strokeWidth=5;fontSize=30;fillColor=#ffffff;fontColor=#ffffff;fontFamily=GOST type B;fontStyle=2" parent="1" vertex="1">
          <mxGeometry x="1105" y="266" width="250" height="160" as="geometry" />
        </mxCell>
        <mxCell id="D2IMOP5hFgYrjIb1j9_1-1" value="&lt;font style=&quot;font-size: 90px;&quot;&gt;UML Диаграмма&amp;nbsp;Последовательности&amp;nbsp;&lt;/font&gt;" style="text;html=1;align=center;verticalAlign=middle;resizable=0;points=[];autosize=1;strokeColor=none;fillColor=none;fontSize=40;strokeWidth=5;fontFamily=GOST type B;fontStyle=2" parent="1" vertex="1">
          <mxGeometry x="944.9999999999999" y="58" width="1480" height="120" as="geometry" />
        </mxCell>
        <mxCell id="W98Ihrel11kOtHPu-lKR-1" value="&lt;font color=&quot;#000000&quot; style=&quot;font-size: 30px;&quot;&gt;&lt;span style=&quot;font-size: 30px;&quot;&gt;Страница &lt;br&gt;приватного&lt;br&gt;чата&lt;br style=&quot;font-size: 30px;&quot;&gt;&lt;/span&gt;&lt;/font&gt;" style="rounded=0;whiteSpace=wrap;html=1;strokeColor=#000000;strokeWidth=5;fontSize=30;fillColor=#ffffff;fontColor=#ffffff;fontFamily=GOST type B;fontStyle=2" parent="1" vertex="1">
          <mxGeometry x="1605" y="266" width="250" height="160" as="geometry" />
        </mxCell>
        <mxCell id="4j9cachHmxRiALqTehqJ-1" value="&lt;font style=&quot;font-size: 30px;&quot; color=&quot;#000000&quot;&gt;&lt;span style=&quot;font-size: 30px;&quot;&gt;Страница&lt;br&gt;списка всех пользователей&lt;br&gt;&lt;/span&gt;&lt;/font&gt;" style="rounded=0;whiteSpace=wrap;html=1;strokeColor=#000000;strokeWidth=5;fontSize=40;fillColor=#ffffff;fontColor=#ffffff;fontFamily=GOST type B;fontStyle=2" parent="1" vertex="1">
          <mxGeometry x="2105" y="266" width="250" height="160" as="geometry" />
        </mxCell>
        <mxCell id="4j9cachHmxRiALqTehqJ-2" value="" style="rounded=0;whiteSpace=wrap;html=1;rotation=90;fillColor=#ffffff;fontColor=#ffffff;strokeColor=#02131d;strokeWidth=3;fontFamily=GOST type B;fontStyle=2" parent="1" vertex="1">
          <mxGeometry x="-580" y="1391.99" width="1691.39" height="30" as="geometry" />
        </mxCell>
        <mxCell id="4j9cachHmxRiALqTehqJ-6" value="" style="endArrow=classic;html=1;rounded=1;shadow=0;labelBackgroundColor=none;labelBorderColor=#5E5E5E;sketch=0;strokeWidth=5;fontSize=40;sourcePerimeterSpacing=1;targetPerimeterSpacing=1;jumpStyle=none;fontFamily=GOST type B;fontStyle=2" parent="1" edge="1">
          <mxGeometry width="50" height="50" relative="1" as="geometry">
            <mxPoint x="282" y="637" as="sourcePoint" />
            <mxPoint x="714" y="637" as="targetPoint" />
          </mxGeometry>
        </mxCell>
        <mxCell id="4j9cachHmxRiALqTehqJ-19" value="" style="endArrow=none;dashed=1;html=1;rounded=1;shadow=0;labelBackgroundColor=none;labelBorderColor=#5E5E5E;sketch=0;strokeWidth=5;fontSize=40;targetPerimeterSpacing=1;jumpStyle=none;entryX=1;entryY=0.5;entryDx=0;entryDy=0;startArrow=none;fontFamily=GOST type B;fontStyle=2" parent="1" edge="1">
          <mxGeometry x="1" y="-758" width="50" height="50" relative="1" as="geometry">
            <mxPoint x="2229" y="2013" as="sourcePoint" />
            <mxPoint x="2229" y="429" as="targetPoint" />
            <mxPoint x="-475" y="-703" as="offset" />
          </mxGeometry>
        </mxCell>
        <mxCell id="4j9cachHmxRiALqTehqJ-44" value="" style="rounded=0;whiteSpace=wrap;html=1;rotation=90;fillColor=#ffffff;fontColor=#ffffff;strokeColor=#02131d;strokeWidth=3;fontFamily=GOST type B;fontStyle=2" parent="1" vertex="1">
          <mxGeometry x="551.28" y="801.03" width="357.48" height="30" as="geometry" />
        </mxCell>
        <mxCell id="4j9cachHmxRiALqTehqJ-45" value="1: Открытие программного&amp;nbsp; &amp;nbsp; &amp;nbsp; &amp;nbsp; &amp;nbsp; &amp;nbsp; &amp;nbsp; &amp;nbsp;средства" style="text;whiteSpace=wrap;html=1;fontSize=30;fontColor=#000000;fontFamily=GOST type B;fontStyle=2" parent="1" vertex="1">
          <mxGeometry x="319.01" y="550" width="390.99" height="49.61" as="geometry" />
        </mxCell>
        <mxCell id="4j9cachHmxRiALqTehqJ-47" value="" style="endArrow=classic;html=1;rounded=1;shadow=0;labelBackgroundColor=none;labelBorderColor=#5E5E5E;sketch=0;strokeWidth=5;fontSize=30;fontColor=#000000;sourcePerimeterSpacing=1;targetPerimeterSpacing=1;jumpStyle=none;exitX=0.083;exitY=-0.007;exitDx=0;exitDy=0;exitPerimeter=0;fontFamily=GOST type B;fontStyle=2" parent="1" edge="1">
          <mxGeometry x="0.0005" y="20" width="50" height="50" relative="1" as="geometry">
            <mxPoint x="743.69" y="653" as="sourcePoint" />
            <mxPoint x="743.69" y="703" as="targetPoint" />
            <Array as="points">
              <mxPoint x="768.7999999999997" y="653" />
              <mxPoint x="803" y="653" />
              <mxPoint x="803" y="703" />
            </Array>
            <mxPoint as="offset" />
          </mxGeometry>
        </mxCell>
        <mxCell id="4j9cachHmxRiALqTehqJ-48" value="&lt;font style=&quot;font-size: 30px;&quot;&gt;2: Ввод данных &lt;br style=&quot;font-size: 30px;&quot;&gt;формы логина&lt;br style=&quot;font-size: 30px;&quot;&gt;&lt;/font&gt;" style="text;html=1;align=center;verticalAlign=middle;resizable=0;points=[];autosize=1;strokeColor=none;fillColor=none;fontSize=30;strokeWidth=5;fontFamily=GOST type B;fontStyle=2" parent="1" vertex="1">
          <mxGeometry x="811.69" y="622.3" width="220" height="90" as="geometry" />
        </mxCell>
        <mxCell id="4j9cachHmxRiALqTehqJ-51" value="&lt;font style=&quot;font-size: 30px;&quot;&gt;6: Переход на страницу чатов&lt;br&gt;&lt;/font&gt;" style="text;html=1;align=center;verticalAlign=middle;resizable=0;points=[];autosize=1;strokeColor=none;fillColor=none;fontSize=40;fontColor=#000000;fontFamily=GOST type B;fontStyle=2" parent="1" vertex="1">
          <mxGeometry x="752.0000000000001" y="928.51" width="420" height="60" as="geometry" />
        </mxCell>
        <mxCell id="4j9cachHmxRiALqTehqJ-52" value="" style="rounded=0;whiteSpace=wrap;html=1;rotation=90;fillColor=#ffffff;fontColor=#ffffff;strokeColor=#02131d;strokeWidth=3;fontFamily=GOST type B;fontStyle=2" parent="1" vertex="1">
          <mxGeometry x="1083.12" y="1123.88" width="293.76" height="30" as="geometry" />
        </mxCell>
        <mxCell id="4j9cachHmxRiALqTehqJ-53" value="" style="endArrow=classic;html=1;rounded=1;shadow=0;labelBackgroundColor=none;labelBorderColor=#5E5E5E;sketch=0;strokeWidth=5;fontSize=40;sourcePerimeterSpacing=1;targetPerimeterSpacing=1;jumpStyle=none;fontFamily=GOST type B;fontStyle=2" parent="1" edge="1">
          <mxGeometry width="50" height="50" relative="1" as="geometry">
            <mxPoint x="746" y="993" as="sourcePoint" />
            <mxPoint x="1214" y="993" as="targetPoint" />
          </mxGeometry>
        </mxCell>
        <mxCell id="4j9cachHmxRiALqTehqJ-56" value="" style="rounded=0;whiteSpace=wrap;html=1;rotation=90;fillColor=#ffffff;fontColor=#ffffff;strokeColor=#02131d;strokeWidth=3;fontFamily=GOST type B;fontStyle=2" parent="1" vertex="1">
          <mxGeometry x="1537.5" y="1462.5" width="385" height="30" as="geometry" />
        </mxCell>
        <mxCell id="4j9cachHmxRiALqTehqJ-57" value="" style="endArrow=classic;html=1;rounded=1;shadow=0;labelBackgroundColor=none;labelBorderColor=#5E5E5E;sketch=0;strokeWidth=5;fontSize=40;sourcePerimeterSpacing=1;targetPerimeterSpacing=1;jumpStyle=none;fontFamily=GOST type B;fontStyle=2" parent="1" edge="1">
          <mxGeometry width="50" height="50" relative="1" as="geometry">
            <mxPoint x="1245" y="1285" as="sourcePoint" />
            <mxPoint x="1713" y="1285" as="targetPoint" />
          </mxGeometry>
        </mxCell>
        <mxCell id="4j9cachHmxRiALqTehqJ-60" value="" style="endArrow=classic;html=1;rounded=1;shadow=0;labelBackgroundColor=none;labelBorderColor=#5E5E5E;sketch=0;strokeWidth=5;fontSize=30;fontColor=#000000;sourcePerimeterSpacing=1;targetPerimeterSpacing=1;jumpStyle=none;exitX=0.083;exitY=-0.007;exitDx=0;exitDy=0;exitPerimeter=0;fontFamily=GOST type B;fontStyle=2" parent="1" edge="1">
          <mxGeometry x="0.0005" y="20" width="50" height="50" relative="1" as="geometry">
            <mxPoint x="1744.9999999999998" y="1288" as="sourcePoint" />
            <mxPoint x="1744.9999999999998" y="1338" as="targetPoint" />
            <Array as="points">
              <mxPoint x="1770.1099999999994" y="1288" />
              <mxPoint x="1804.3099999999993" y="1288" />
              <mxPoint x="1804.3099999999993" y="1338" />
            </Array>
            <mxPoint as="offset" />
          </mxGeometry>
        </mxCell>
        <mxCell id="4j9cachHmxRiALqTehqJ-61" value="&lt;font style=&quot;font-size: 30px;&quot;&gt;11: Заполнения поля для &lt;br&gt;отправки сообщения&amp;nbsp;&lt;br style=&quot;font-size: 30px;&quot;&gt;&lt;/font&gt;" style="text;html=1;align=center;verticalAlign=middle;resizable=0;points=[];autosize=1;strokeColor=none;fillColor=none;fontSize=30;strokeWidth=5;fontFamily=GOST type B;fontStyle=2" parent="1" vertex="1">
          <mxGeometry x="1835.0299999999997" y="1266" width="330" height="90" as="geometry" />
        </mxCell>
        <mxCell id="4j9cachHmxRiALqTehqJ-63" value="" style="endArrow=classic;html=1;rounded=1;shadow=0;labelBackgroundColor=none;labelBorderColor=#5E5E5E;sketch=0;strokeWidth=5;fontSize=30;fontColor=#000000;sourcePerimeterSpacing=1;targetPerimeterSpacing=1;jumpStyle=none;exitX=0.083;exitY=-0.007;exitDx=0;exitDy=0;exitPerimeter=0;fontFamily=GOST type B;fontStyle=2" parent="1" edge="1">
          <mxGeometry x="0.0005" y="20" width="50" height="50" relative="1" as="geometry">
            <mxPoint x="1744.9999999999998" y="1366.3" as="sourcePoint" />
            <mxPoint x="1744.9999999999998" y="1416.3" as="targetPoint" />
            <Array as="points">
              <mxPoint x="1770.1099999999994" y="1366.3" />
              <mxPoint x="1804.3099999999993" y="1366.3" />
              <mxPoint x="1804.3099999999993" y="1416.3" />
            </Array>
            <mxPoint as="offset" />
          </mxGeometry>
        </mxCell>
        <mxCell id="4j9cachHmxRiALqTehqJ-64" value="&lt;font style=&quot;font-size: 30px;&quot;&gt;12: Нажатие кнопки &lt;br&gt;отправить сообщения&amp;nbsp;&lt;br style=&quot;font-size: 30px;&quot;&gt;&lt;/font&gt;" style="text;html=1;align=center;verticalAlign=middle;resizable=0;points=[];autosize=1;strokeColor=none;fillColor=none;fontSize=30;strokeWidth=5;fontFamily=GOST type B;fontStyle=2" parent="1" vertex="1">
          <mxGeometry x="1811.0299999999997" y="1348" width="320" height="90" as="geometry" />
        </mxCell>
        <mxCell id="4j9cachHmxRiALqTehqJ-66" value="" style="endArrow=classic;html=1;rounded=1;shadow=0;labelBackgroundColor=none;labelBorderColor=#5E5E5E;sketch=0;strokeWidth=5;fontSize=40;sourcePerimeterSpacing=1;targetPerimeterSpacing=1;jumpStyle=none;fontFamily=GOST type B;fontStyle=2" parent="1" edge="1">
          <mxGeometry width="50" height="50" relative="1" as="geometry">
            <mxPoint x="1714" y="1669" as="sourcePoint" />
            <mxPoint x="1245" y="1669" as="targetPoint" />
          </mxGeometry>
        </mxCell>
        <mxCell id="4j9cachHmxRiALqTehqJ-67" value="&lt;span style=&quot;color: rgb(0, 0, 0); font-size: 30px; font-variant-ligatures: normal; font-variant-caps: normal; font-weight: 400; letter-spacing: normal; orphans: 2; text-align: center; text-indent: 0px; text-transform: none; widows: 2; word-spacing: 0px; -webkit-text-stroke-width: 0px; background-color: rgb(251, 251, 251); text-decoration-thickness: initial; text-decoration-style: initial; text-decoration-color: initial; float: none; display: inline !important;&quot;&gt;15: Нажатие кнопки назад&lt;/span&gt;" style="text;whiteSpace=wrap;html=1;fontFamily=GOST type B;fontStyle=2" parent="1" vertex="1">
          <mxGeometry x="1319.68" y="1611.7" width="360" height="60" as="geometry" />
        </mxCell>
        <mxCell id="4j9cachHmxRiALqTehqJ-80" value="&lt;font style=&quot;font-size: 30px;&quot;&gt;16: Нажать на иконку списка&amp;nbsp;&lt;br style=&quot;font-size: 30px;&quot;&gt;&lt;/font&gt;" style="text;html=1;align=center;verticalAlign=middle;resizable=0;points=[];autosize=1;strokeColor=none;fillColor=none;fontSize=30;strokeWidth=5;fontFamily=GOST type B;fontStyle=2" parent="1" vertex="1">
          <mxGeometry x="1308.6800000000003" y="1693" width="410" height="50" as="geometry" />
        </mxCell>
        <mxCell id="4j9cachHmxRiALqTehqJ-81" value="" style="rounded=0;whiteSpace=wrap;html=1;rotation=90;fillColor=#ffffff;fontColor=#ffffff;strokeColor=#02131d;strokeWidth=3;fontFamily=GOST type B;fontStyle=2" parent="1" vertex="1">
          <mxGeometry x="2182.5" y="2049.5" width="95" height="30" as="geometry" />
        </mxCell>
        <mxCell id="4j9cachHmxRiALqTehqJ-84" value="" style="endArrow=classic;html=1;rounded=1;shadow=0;labelBackgroundColor=none;labelBorderColor=#5E5E5E;sketch=0;strokeWidth=5;fontSize=30;fontColor=#000000;sourcePerimeterSpacing=1;targetPerimeterSpacing=1;jumpStyle=none;exitX=0.083;exitY=-0.007;exitDx=0;exitDy=0;exitPerimeter=0;fontFamily=GOST type B;fontStyle=2" parent="1" edge="1">
          <mxGeometry x="0.0005" y="20" width="50" height="50" relative="1" as="geometry">
            <mxPoint x="2246" y="2022" as="sourcePoint" />
            <mxPoint x="2246" y="2072" as="targetPoint" />
            <Array as="points">
              <mxPoint x="2271.1099999999997" y="2022" />
              <mxPoint x="2305.3099999999995" y="2022" />
              <mxPoint x="2305.3099999999995" y="2072" />
            </Array>
            <mxPoint as="offset" />
          </mxGeometry>
        </mxCell>
        <mxCell id="4j9cachHmxRiALqTehqJ-85" value="&lt;font style=&quot;font-size: 30px;&quot;&gt;20: Просмотр списка&lt;br&gt;всех пользователей&lt;br style=&quot;font-size: 30px;&quot;&gt;&lt;/font&gt;" style="text;html=1;align=center;verticalAlign=middle;resizable=0;points=[];autosize=1;strokeColor=none;fillColor=none;fontSize=30;strokeWidth=5;fontFamily=GOST type B;fontStyle=2" parent="1" vertex="1">
          <mxGeometry x="2304.9999999999995" y="2002" width="290" height="90" as="geometry" />
        </mxCell>
        <mxCell id="4j9cachHmxRiALqTehqJ-87" value="&lt;div style=&quot;text-align: center;&quot;&gt;&lt;font&gt;&lt;span style=&quot;font-size: 30px;&quot;&gt;21: Закрытие программного&lt;/span&gt;&lt;/font&gt;&lt;/div&gt;&lt;div style=&quot;text-align: center;&quot;&gt;&lt;font&gt;&lt;span style=&quot;font-size: 30px;&quot;&gt;&amp;nbsp;средства&lt;/span&gt;&lt;/font&gt;&lt;/div&gt;" style="text;whiteSpace=wrap;html=1;fontFamily=GOST type B;fontStyle=2" parent="1" vertex="1">
          <mxGeometry x="844" y="2164.73" width="520" height="60" as="geometry" />
        </mxCell>
        <mxCell id="4j9cachHmxRiALqTehqJ-91" value="" style="endArrow=classic;html=1;rounded=1;shadow=0;labelBackgroundColor=none;labelBorderColor=#5E5E5E;sketch=0;strokeWidth=5;fontSize=40;sourcePerimeterSpacing=1;targetPerimeterSpacing=1;jumpStyle=none;fontFamily=GOST type B;fontStyle=2" parent="1" edge="1">
          <mxGeometry width="50" height="50" relative="1" as="geometry">
            <mxPoint x="1216" y="2251" as="sourcePoint" />
            <mxPoint x="281" y="2251" as="targetPoint" />
          </mxGeometry>
        </mxCell>
        <mxCell id="4j9cachHmxRiALqTehqJ-93" value="" style="endArrow=none;dashed=1;html=1;rounded=1;shadow=0;labelBackgroundColor=none;labelBorderColor=#5E5E5E;sketch=0;strokeWidth=5;fontSize=40;sourcePerimeterSpacing=1;targetPerimeterSpacing=1;jumpStyle=none;entryX=1;entryY=0.5;entryDx=0;entryDy=0;fontFamily=GOST type B;fontStyle=2" parent="1" edge="1">
          <mxGeometry width="50" height="50" relative="1" as="geometry">
            <mxPoint x="264.68" y="2302" as="sourcePoint" />
            <mxPoint x="265.1249999999979" y="2255.995000000001" as="targetPoint" />
          </mxGeometry>
        </mxCell>
        <mxCell id="4j9cachHmxRiALqTehqJ-94" value="" style="endArrow=none;dashed=1;html=1;rounded=1;shadow=0;labelBackgroundColor=none;labelBorderColor=#5E5E5E;sketch=0;strokeWidth=5;fontSize=40;sourcePerimeterSpacing=1;targetPerimeterSpacing=1;jumpStyle=none;entryX=1;entryY=0.5;entryDx=0;entryDy=0;fontFamily=GOST type B;fontStyle=2" parent="1" edge="1">
          <mxGeometry width="50" height="50" relative="1" as="geometry">
            <mxPoint x="265.46999999999997" y="553.8299999999999" as="sourcePoint" />
            <mxPoint x="265.91499999999786" y="506.9950000000008" as="targetPoint" />
          </mxGeometry>
        </mxCell>
        <mxCell id="4j9cachHmxRiALqTehqJ-98" value="&lt;font style=&quot;font-size: 30px;&quot;&gt;Обновления экрана&lt;br&gt;&amp;nbsp;чата&lt;br style=&quot;font-size: 30px;&quot;&gt;&lt;/font&gt;" style="text;html=1;align=center;verticalAlign=middle;resizable=0;points=[];autosize=1;strokeColor=none;fillColor=none;fontSize=30;strokeWidth=5;fontFamily=GOST type B;fontStyle=2" parent="1" vertex="1">
          <mxGeometry x="1804.9999999999995" y="1581.7" width="270" height="90" as="geometry" />
        </mxCell>
        <mxCell id="v-4gDYmKBZiMCs_DVV37-4" value="" style="endArrow=none;dashed=1;html=1;rounded=1;shadow=0;labelBackgroundColor=none;labelBorderColor=#5E5E5E;sketch=0;strokeWidth=5;fontSize=40;sourcePerimeterSpacing=1;targetPerimeterSpacing=1;jumpStyle=none;entryX=1;entryY=0.5;entryDx=0;entryDy=0;fontFamily=GOST type B;fontStyle=2" parent="1" edge="1">
          <mxGeometry width="50" height="50" relative="1" as="geometry">
            <mxPoint x="1230" y="986" as="sourcePoint" />
            <mxPoint x="1230" y="426" as="targetPoint" />
          </mxGeometry>
        </mxCell>
        <mxCell id="v-4gDYmKBZiMCs_DVV37-5" value="" style="endArrow=none;dashed=1;html=1;rounded=1;shadow=0;labelBackgroundColor=none;labelBorderColor=#5E5E5E;sketch=0;strokeWidth=5;fontSize=40;sourcePerimeterSpacing=1;targetPerimeterSpacing=1;jumpStyle=none;entryX=1;entryY=0.5;entryDx=0;entryDy=0;fontFamily=GOST type B;fontStyle=2" parent="1" edge="1">
          <mxGeometry width="50" height="50" relative="1" as="geometry">
            <mxPoint x="1729" y="1276" as="sourcePoint" />
            <mxPoint x="1729.44" y="431" as="targetPoint" />
          </mxGeometry>
        </mxCell>
        <mxCell id="v-4gDYmKBZiMCs_DVV37-6" value="" style="endArrow=none;dashed=1;html=1;rounded=1;shadow=0;labelBackgroundColor=none;labelBorderColor=#5E5E5E;sketch=0;strokeWidth=5;fontSize=40;sourcePerimeterSpacing=1;targetPerimeterSpacing=1;jumpStyle=none;entryX=1;entryY=0.5;entryDx=0;entryDy=0;fontFamily=GOST type B;fontStyle=2" parent="1" edge="1">
          <mxGeometry width="50" height="50" relative="1" as="geometry">
            <mxPoint x="730" y="629" as="sourcePoint" />
            <mxPoint x="730" y="420" as="targetPoint" />
          </mxGeometry>
        </mxCell>
        <mxCell id="v-4gDYmKBZiMCs_DVV37-11" value="" style="endArrow=none;dashed=1;html=1;rounded=1;shadow=0;labelBackgroundColor=none;labelBorderColor=#5E5E5E;sketch=0;strokeWidth=5;fontSize=40;sourcePerimeterSpacing=1;targetPerimeterSpacing=1;jumpStyle=none;entryX=1;entryY=0.5;entryDx=0;entryDy=0;fontFamily=GOST type B;fontStyle=2" parent="1" edge="1">
          <mxGeometry width="50" height="50" relative="1" as="geometry">
            <mxPoint x="1229" y="1665" as="sourcePoint" />
            <mxPoint x="1229.17" y="1291.49" as="targetPoint" />
          </mxGeometry>
        </mxCell>
        <mxCell id="v-4gDYmKBZiMCs_DVV37-15" value="" style="endArrow=none;dashed=1;html=1;rounded=1;shadow=0;labelBackgroundColor=none;labelBorderColor=#5E5E5E;sketch=0;strokeWidth=5;fontSize=40;sourcePerimeterSpacing=1;targetPerimeterSpacing=1;jumpStyle=none;entryX=1;entryY=0.5;entryDx=0;entryDy=0;fontFamily=GOST type B;fontStyle=2" parent="1" edge="1">
          <mxGeometry width="50" height="50" relative="1" as="geometry">
            <mxPoint x="730" y="2296" as="sourcePoint" />
            <mxPoint x="730" y="995" as="targetPoint" />
          </mxGeometry>
        </mxCell>
        <mxCell id="dgq1h4YX0ljx0XyoBOAO-2" value="&lt;font style=&quot;font-size: 30px;&quot; color=&quot;#000000&quot;&gt;&lt;span style=&quot;font-size: 30px;&quot;&gt;Сервер&lt;br&gt;&lt;/span&gt;&lt;/font&gt;" style="rounded=0;whiteSpace=wrap;html=1;strokeColor=#000000;strokeWidth=5;fontSize=40;fillColor=#ffffff;fontColor=#ffffff;fontFamily=GOST type B;fontStyle=2" parent="1" vertex="1">
          <mxGeometry x="2605" y="266" width="250" height="160" as="geometry" />
        </mxCell>
        <mxCell id="dgq1h4YX0ljx0XyoBOAO-7" value="" style="endArrow=classic;html=1;rounded=1;shadow=0;labelBackgroundColor=none;labelBorderColor=#5E5E5E;sketch=0;strokeWidth=5;fontSize=40;sourcePerimeterSpacing=1;targetPerimeterSpacing=1;jumpStyle=none;fontFamily=GOST type B;fontStyle=2" parent="1" edge="1">
          <mxGeometry width="50" height="50" relative="1" as="geometry">
            <mxPoint x="745.69" y="860.45" as="sourcePoint" />
            <mxPoint x="2715" y="860" as="targetPoint" />
          </mxGeometry>
        </mxCell>
        <mxCell id="dgq1h4YX0ljx0XyoBOAO-8" value="" style="endArrow=classic;html=1;rounded=1;shadow=0;labelBackgroundColor=none;labelBorderColor=#5E5E5E;sketch=0;strokeWidth=5;fontSize=30;fontColor=#000000;sourcePerimeterSpacing=1;targetPerimeterSpacing=1;jumpStyle=none;exitX=0.083;exitY=-0.007;exitDx=0;exitDy=0;exitPerimeter=0;fontFamily=GOST type B;fontStyle=2" parent="1" edge="1">
          <mxGeometry x="0.0005" y="20" width="50" height="50" relative="1" as="geometry">
            <mxPoint x="745.69" y="728" as="sourcePoint" />
            <mxPoint x="745.69" y="778" as="targetPoint" />
            <Array as="points">
              <mxPoint x="770.7999999999997" y="728" />
              <mxPoint x="805" y="728" />
              <mxPoint x="805" y="778" />
            </Array>
            <mxPoint as="offset" />
          </mxGeometry>
        </mxCell>
        <mxCell id="dgq1h4YX0ljx0XyoBOAO-9" value="&lt;font style=&quot;font-size: 30px;&quot;&gt;3: Нажатие &lt;br&gt;кнопки логин&lt;br style=&quot;font-size: 30px;&quot;&gt;&lt;/font&gt;" style="text;html=1;align=center;verticalAlign=middle;resizable=0;points=[];autosize=1;strokeColor=none;fillColor=none;fontSize=30;strokeWidth=5;fontFamily=GOST type B;fontStyle=2" parent="1" vertex="1">
          <mxGeometry x="826.69" y="713.3" width="190" height="90" as="geometry" />
        </mxCell>
        <mxCell id="dgq1h4YX0ljx0XyoBOAO-10" value="&lt;font style=&quot;font-size: 30px;&quot;&gt;4: Отправка данных на сервер&lt;br style=&quot;font-size: 30px;&quot;&gt;&lt;/font&gt;" style="text;html=1;align=center;verticalAlign=middle;resizable=0;points=[];autosize=1;strokeColor=none;fillColor=none;fontSize=30;strokeWidth=5;fontFamily=GOST type B;fontStyle=2" parent="1" vertex="1">
          <mxGeometry x="752" y="804" width="420" height="50" as="geometry" />
        </mxCell>
        <mxCell id="dgq1h4YX0ljx0XyoBOAO-11" value="" style="rounded=0;whiteSpace=wrap;html=1;rotation=90;fillColor=#ffffff;fontColor=#ffffff;strokeColor=#02131d;strokeWidth=3;fontFamily=GOST type B;fontStyle=2" parent="1" vertex="1">
          <mxGeometry x="2694" y="882.49" width="75.01" height="30" as="geometry" />
        </mxCell>
        <mxCell id="dgq1h4YX0ljx0XyoBOAO-12" value="" style="endArrow=none;dashed=1;html=1;rounded=1;shadow=0;labelBackgroundColor=none;labelBorderColor=#5E5E5E;sketch=0;strokeWidth=5;fontSize=40;sourcePerimeterSpacing=1;targetPerimeterSpacing=1;jumpStyle=none;entryX=1;entryY=0.5;entryDx=0;entryDy=0;fontFamily=GOST type B;fontStyle=2" parent="1" edge="1">
          <mxGeometry width="50" height="50" relative="1" as="geometry">
            <mxPoint x="2731" y="846" as="sourcePoint" />
            <mxPoint x="2731" y="434" as="targetPoint" />
          </mxGeometry>
        </mxCell>
        <mxCell id="dgq1h4YX0ljx0XyoBOAO-13" value="" style="endArrow=classic;html=1;rounded=1;shadow=0;labelBackgroundColor=none;labelBorderColor=#5E5E5E;sketch=0;strokeWidth=5;fontSize=30;fontColor=#000000;sourcePerimeterSpacing=1;targetPerimeterSpacing=1;jumpStyle=none;exitX=0.083;exitY=-0.007;exitDx=0;exitDy=0;exitPerimeter=0;fontFamily=GOST type B;fontStyle=2" parent="1" edge="1">
          <mxGeometry x="0.0005" y="20" width="50" height="50" relative="1" as="geometry">
            <mxPoint x="2746" y="867" as="sourcePoint" />
            <mxPoint x="2746" y="917" as="targetPoint" />
            <Array as="points">
              <mxPoint x="2771.1099999999997" y="867" />
              <mxPoint x="2805.3099999999995" y="867" />
              <mxPoint x="2805.3099999999995" y="917" />
            </Array>
            <mxPoint as="offset" />
          </mxGeometry>
        </mxCell>
        <mxCell id="dgq1h4YX0ljx0XyoBOAO-14" value="&lt;font style=&quot;font-size: 30px;&quot;&gt;5: Проверка валидности данных&amp;nbsp;&lt;br style=&quot;font-size: 30px;&quot;&gt;&lt;/font&gt;" style="text;html=1;align=center;verticalAlign=middle;resizable=0;points=[];autosize=1;strokeColor=none;fillColor=none;fontSize=30;strokeWidth=5;fontFamily=GOST type B;fontStyle=2" parent="1" vertex="1">
          <mxGeometry x="2809.9999999999995" y="872.49" width="440" height="50" as="geometry" />
        </mxCell>
        <mxCell id="dgq1h4YX0ljx0XyoBOAO-16" value="&lt;div style=&quot;text-align: center;&quot;&gt;&lt;span style=&quot;background-color: initial; font-size: 30px;&quot;&gt;&lt;font face=&quot;GOST type B&quot;&gt;Ответ от сервера&lt;/font&gt;&lt;/span&gt;&lt;/div&gt;" style="text;whiteSpace=wrap;html=1;fontStyle=2" parent="1" vertex="1">
          <mxGeometry x="2395" y="886" width="290" height="38.51" as="geometry" />
        </mxCell>
        <mxCell id="dgq1h4YX0ljx0XyoBOAO-18" value="" style="html=1;verticalAlign=bottom;endArrow=open;dashed=1;endSize=8;curved=0;rounded=0;strokeWidth=5;fontStyle=2" parent="1" edge="1">
          <mxGeometry relative="1" as="geometry">
            <mxPoint x="2714" y="934" as="sourcePoint" />
            <mxPoint x="744" y="934" as="targetPoint" />
          </mxGeometry>
        </mxCell>
        <mxCell id="dgq1h4YX0ljx0XyoBOAO-22" value="" style="endArrow=classic;html=1;rounded=1;shadow=0;labelBackgroundColor=none;labelBorderColor=#5E5E5E;sketch=0;strokeWidth=5;fontSize=30;fontColor=#000000;sourcePerimeterSpacing=1;targetPerimeterSpacing=1;jumpStyle=none;exitX=0.083;exitY=-0.007;exitDx=0;exitDy=0;exitPerimeter=0;fontFamily=GOST type B;fontStyle=2" parent="1" edge="1">
          <mxGeometry x="0.0005" y="20" width="50" height="50" relative="1" as="geometry">
            <mxPoint x="1245" y="1004" as="sourcePoint" />
            <mxPoint x="1245" y="1054" as="targetPoint" />
            <Array as="points">
              <mxPoint x="1270.1099999999997" y="1004" />
              <mxPoint x="1304.3099999999995" y="1004" />
              <mxPoint x="1304.3099999999995" y="1054" />
            </Array>
            <mxPoint as="offset" />
          </mxGeometry>
        </mxCell>
        <mxCell id="dgq1h4YX0ljx0XyoBOAO-24" value="&lt;font style=&quot;font-size: 30px;&quot;&gt;7: Нажатие на &lt;br&gt;определенный чат&lt;br style=&quot;font-size: 30px;&quot;&gt;&lt;/font&gt;" style="text;html=1;align=center;verticalAlign=middle;resizable=0;points=[];autosize=1;strokeColor=none;fillColor=none;fontSize=30;strokeWidth=5;fontFamily=GOST type B;fontStyle=2" parent="1" vertex="1">
          <mxGeometry x="1302" y="982.51" width="260" height="90" as="geometry" />
        </mxCell>
        <mxCell id="dgq1h4YX0ljx0XyoBOAO-25" value="" style="endArrow=classic;html=1;rounded=1;shadow=0;labelBackgroundColor=none;labelBorderColor=#5E5E5E;sketch=0;strokeWidth=5;fontSize=40;sourcePerimeterSpacing=1;targetPerimeterSpacing=1;jumpStyle=none;fontFamily=GOST type B;fontStyle=2" parent="1" edge="1">
          <mxGeometry width="50" height="50" relative="1" as="geometry">
            <mxPoint x="1245" y="1136" as="sourcePoint" />
            <mxPoint x="2715" y="1136" as="targetPoint" />
          </mxGeometry>
        </mxCell>
        <mxCell id="dgq1h4YX0ljx0XyoBOAO-27" value="&lt;font style=&quot;font-size: 30px;&quot;&gt;8: Отправка запроса на сервер&lt;br&gt;&lt;/font&gt;" style="text;html=1;align=center;verticalAlign=middle;resizable=0;points=[];autosize=1;strokeColor=none;fillColor=none;fontSize=40;fontColor=#000000;fontFamily=GOST type B;fontStyle=2" parent="1" vertex="1">
          <mxGeometry x="1250" y="1067" width="430" height="60" as="geometry" />
        </mxCell>
        <mxCell id="dgq1h4YX0ljx0XyoBOAO-28" value="" style="rounded=0;whiteSpace=wrap;html=1;rotation=90;fillColor=#ffffff;fontColor=#ffffff;strokeColor=#02131d;strokeWidth=3;fontFamily=GOST type B;fontStyle=2" parent="1" vertex="1">
          <mxGeometry x="2694" y="1158.49" width="75.01" height="30" as="geometry" />
        </mxCell>
        <mxCell id="dgq1h4YX0ljx0XyoBOAO-30" value="" style="endArrow=classic;html=1;rounded=1;shadow=0;labelBackgroundColor=none;labelBorderColor=#5E5E5E;sketch=0;strokeWidth=5;fontSize=30;fontColor=#000000;sourcePerimeterSpacing=1;targetPerimeterSpacing=1;jumpStyle=none;exitX=0.083;exitY=-0.007;exitDx=0;exitDy=0;exitPerimeter=0;fontFamily=GOST type B;fontStyle=2" parent="1" edge="1">
          <mxGeometry x="0.0005" y="20" width="50" height="50" relative="1" as="geometry">
            <mxPoint x="2746" y="1143" as="sourcePoint" />
            <mxPoint x="2746" y="1193" as="targetPoint" />
            <Array as="points">
              <mxPoint x="2771.1099999999997" y="1143" />
              <mxPoint x="2805.3099999999995" y="1143" />
              <mxPoint x="2805.3099999999995" y="1193" />
            </Array>
            <mxPoint as="offset" />
          </mxGeometry>
        </mxCell>
        <mxCell id="dgq1h4YX0ljx0XyoBOAO-31" value="&lt;font style=&quot;font-size: 30px;&quot;&gt;9: Проверка прав доступа&amp;nbsp;&lt;br style=&quot;font-size: 30px;&quot;&gt;&lt;/font&gt;" style="text;html=1;align=center;verticalAlign=middle;resizable=0;points=[];autosize=1;strokeColor=none;fillColor=none;fontSize=30;strokeWidth=5;fontFamily=GOST type B;fontStyle=2" parent="1" vertex="1">
          <mxGeometry x="2808.9999999999995" y="1145" width="370" height="50" as="geometry" />
        </mxCell>
        <mxCell id="dgq1h4YX0ljx0XyoBOAO-32" value="" style="html=1;verticalAlign=bottom;endArrow=open;dashed=1;endSize=8;curved=0;rounded=0;strokeWidth=5;fontStyle=2" parent="1" edge="1">
          <mxGeometry relative="1" as="geometry">
            <mxPoint x="2715" y="1210" as="sourcePoint" />
            <mxPoint x="1245" y="1210" as="targetPoint" />
          </mxGeometry>
        </mxCell>
        <mxCell id="dgq1h4YX0ljx0XyoBOAO-33" value="&lt;span style=&quot;color: rgb(0, 0, 0); font-family: &amp;quot;GOST type B&amp;quot;; font-size: 30px; font-variant-ligatures: normal; font-variant-caps: normal; font-weight: 400; letter-spacing: normal; orphans: 2; text-align: center; text-indent: 0px; text-transform: none; widows: 2; word-spacing: 0px; -webkit-text-stroke-width: 0px; background-color: rgb(251, 251, 251); text-decoration-thickness: initial; text-decoration-style: initial; text-decoration-color: initial; float: none; display: inline !important;&quot;&gt;Ответ от сервера&lt;/span&gt;" style="text;whiteSpace=wrap;html=1;fontStyle=2" parent="1" vertex="1">
          <mxGeometry x="2396" y="1158.49" width="310" height="60" as="geometry" />
        </mxCell>
        <mxCell id="dgq1h4YX0ljx0XyoBOAO-34" value="&lt;span style=&quot;color: rgb(0, 0, 0); font-family: &amp;quot;GOST type B&amp;quot;; font-size: 30px; font-variant-ligatures: normal; font-variant-caps: normal; font-weight: 400; letter-spacing: normal; orphans: 2; text-align: center; text-indent: 0px; text-transform: none; widows: 2; word-spacing: 0px; -webkit-text-stroke-width: 0px; background-color: rgb(251, 251, 251); text-decoration-thickness: initial; text-decoration-style: initial; text-decoration-color: initial; float: none; display: inline !important;&quot;&gt;10: Переход на страницу чата&lt;/span&gt;" style="text;whiteSpace=wrap;html=1;fontStyle=2" parent="1" vertex="1">
          <mxGeometry x="1254" y="1227" width="431" height="59" as="geometry" />
        </mxCell>
        <mxCell id="dgq1h4YX0ljx0XyoBOAO-36" value="" style="endArrow=classic;html=1;rounded=1;shadow=0;labelBackgroundColor=none;labelBorderColor=#5E5E5E;sketch=0;strokeWidth=5;fontSize=40;sourcePerimeterSpacing=1;targetPerimeterSpacing=1;jumpStyle=none;fontFamily=GOST type B;fontStyle=2" parent="1" edge="1">
          <mxGeometry width="50" height="50" relative="1" as="geometry">
            <mxPoint x="1745" y="1491" as="sourcePoint" />
            <mxPoint x="2715" y="1491" as="targetPoint" />
          </mxGeometry>
        </mxCell>
        <mxCell id="dgq1h4YX0ljx0XyoBOAO-39" value="" style="rounded=0;whiteSpace=wrap;html=1;rotation=90;fillColor=#ffffff;fontColor=#ffffff;strokeColor=#02131d;strokeWidth=3;fontFamily=GOST type B;fontStyle=2" parent="1" vertex="1">
          <mxGeometry x="2694" y="1513.49" width="75.01" height="30" as="geometry" />
        </mxCell>
        <mxCell id="dgq1h4YX0ljx0XyoBOAO-40" value="" style="endArrow=classic;html=1;rounded=1;shadow=0;labelBackgroundColor=none;labelBorderColor=#5E5E5E;sketch=0;strokeWidth=5;fontSize=30;fontColor=#000000;sourcePerimeterSpacing=1;targetPerimeterSpacing=1;jumpStyle=none;exitX=0.083;exitY=-0.007;exitDx=0;exitDy=0;exitPerimeter=0;fontFamily=GOST type B;fontStyle=2" parent="1" edge="1">
          <mxGeometry x="0.0005" y="20" width="50" height="50" relative="1" as="geometry">
            <mxPoint x="2746" y="1498" as="sourcePoint" />
            <mxPoint x="2746" y="1548" as="targetPoint" />
            <Array as="points">
              <mxPoint x="2771.1099999999997" y="1498" />
              <mxPoint x="2805.3099999999995" y="1498" />
              <mxPoint x="2805.3099999999995" y="1548" />
            </Array>
            <mxPoint as="offset" />
          </mxGeometry>
        </mxCell>
        <mxCell id="dgq1h4YX0ljx0XyoBOAO-41" value="&lt;font style=&quot;font-size: 30px;&quot;&gt;14: Проверка прав доступа&amp;nbsp;&lt;br style=&quot;font-size: 30px;&quot;&gt;&lt;/font&gt;" style="text;html=1;align=center;verticalAlign=middle;resizable=0;points=[];autosize=1;strokeColor=none;fillColor=none;fontSize=30;strokeWidth=5;fontFamily=GOST type B;fontStyle=2" parent="1" vertex="1">
          <mxGeometry x="2809.9999999999995" y="1498" width="380" height="50" as="geometry" />
        </mxCell>
        <mxCell id="dgq1h4YX0ljx0XyoBOAO-42" value="" style="html=1;verticalAlign=bottom;endArrow=open;dashed=1;endSize=8;curved=0;rounded=0;strokeWidth=5;fontStyle=2" parent="1" edge="1">
          <mxGeometry relative="1" as="geometry">
            <mxPoint x="2715" y="1564" as="sourcePoint" />
            <mxPoint x="1745" y="1564" as="targetPoint" />
          </mxGeometry>
        </mxCell>
        <mxCell id="dgq1h4YX0ljx0XyoBOAO-43" value="&lt;span style=&quot;color: rgb(0, 0, 0); font-family: &amp;quot;GOST type B&amp;quot;; font-size: 30px; font-variant-ligatures: normal; font-variant-caps: normal; font-weight: 400; letter-spacing: normal; orphans: 2; text-align: center; text-indent: 0px; text-transform: none; widows: 2; word-spacing: 0px; -webkit-text-stroke-width: 0px; background-color: rgb(251, 251, 251); text-decoration-thickness: initial; text-decoration-style: initial; text-decoration-color: initial; float: none; display: inline !important;&quot;&gt;Ответ от сервера&lt;/span&gt;" style="text;whiteSpace=wrap;html=1;fontStyle=2" parent="1" vertex="1">
          <mxGeometry x="2394" y="1512" width="320" height="60" as="geometry" />
        </mxCell>
        <mxCell id="dgq1h4YX0ljx0XyoBOAO-45" value="" style="endArrow=classic;html=1;rounded=1;shadow=0;labelBackgroundColor=none;labelBorderColor=#5E5E5E;sketch=0;strokeWidth=5;fontSize=30;fontColor=#000000;sourcePerimeterSpacing=1;targetPerimeterSpacing=1;jumpStyle=none;exitX=0.083;exitY=-0.007;exitDx=0;exitDy=0;exitPerimeter=0;fontFamily=GOST type B;fontStyle=2" parent="1" edge="1">
          <mxGeometry x="0.0005" y="20" width="50" height="50" relative="1" as="geometry">
            <mxPoint x="1245.37" y="1690" as="sourcePoint" />
            <mxPoint x="1245.37" y="1740" as="targetPoint" />
            <Array as="points">
              <mxPoint x="1270.4799999999996" y="1690" />
              <mxPoint x="1304.6799999999994" y="1690" />
              <mxPoint x="1304.6799999999994" y="1740" />
            </Array>
            <mxPoint as="offset" />
          </mxGeometry>
        </mxCell>
        <mxCell id="dgq1h4YX0ljx0XyoBOAO-46" value="" style="endArrow=classic;html=1;rounded=1;shadow=0;labelBackgroundColor=none;labelBorderColor=#5E5E5E;sketch=0;strokeWidth=5;fontSize=40;sourcePerimeterSpacing=1;targetPerimeterSpacing=1;jumpStyle=none;fontFamily=GOST type B;fontStyle=2" parent="1" edge="1">
          <mxGeometry width="50" height="50" relative="1" as="geometry">
            <mxPoint x="1246.34" y="1815" as="sourcePoint" />
            <mxPoint x="2716" y="1815" as="targetPoint" />
          </mxGeometry>
        </mxCell>
        <mxCell id="dgq1h4YX0ljx0XyoBOAO-47" value="&lt;span style=&quot;color: rgb(0, 0, 0); font-family: &amp;quot;GOST type B&amp;quot;; font-size: 30px; font-variant-ligatures: normal; font-variant-caps: normal; font-weight: 400; letter-spacing: normal; orphans: 2; text-align: center; text-indent: 0px; text-transform: none; widows: 2; word-spacing: 0px; -webkit-text-stroke-width: 0px; background-color: rgb(251, 251, 251); text-decoration-thickness: initial; text-decoration-style: initial; text-decoration-color: initial; float: none; display: inline !important;&quot;&gt;17: Отправка запроса на сервер&lt;/span&gt;" style="text;whiteSpace=wrap;html=1;fontStyle=2" parent="1" vertex="1">
          <mxGeometry x="1253.5" y="1763" width="440" height="60" as="geometry" />
        </mxCell>
        <mxCell id="dgq1h4YX0ljx0XyoBOAO-48" value="" style="rounded=0;whiteSpace=wrap;html=1;rotation=90;fillColor=#ffffff;fontColor=#ffffff;strokeColor=#02131d;strokeWidth=3;fontFamily=GOST type B;fontStyle=2" parent="1" vertex="1">
          <mxGeometry x="2695" y="1838.49" width="75.01" height="30" as="geometry" />
        </mxCell>
        <mxCell id="dgq1h4YX0ljx0XyoBOAO-49" value="" style="endArrow=classic;html=1;rounded=1;shadow=0;labelBackgroundColor=none;labelBorderColor=#5E5E5E;sketch=0;strokeWidth=5;fontSize=30;fontColor=#000000;sourcePerimeterSpacing=1;targetPerimeterSpacing=1;jumpStyle=none;exitX=0.083;exitY=-0.007;exitDx=0;exitDy=0;exitPerimeter=0;fontFamily=GOST type B;fontStyle=2" parent="1" edge="1">
          <mxGeometry x="0.0005" y="20" width="50" height="50" relative="1" as="geometry">
            <mxPoint x="2746" y="1823" as="sourcePoint" />
            <mxPoint x="2746" y="1873" as="targetPoint" />
            <Array as="points">
              <mxPoint x="2771.1099999999997" y="1823" />
              <mxPoint x="2805.3099999999995" y="1823" />
              <mxPoint x="2805.3099999999995" y="1873" />
            </Array>
            <mxPoint as="offset" />
          </mxGeometry>
        </mxCell>
        <mxCell id="dgq1h4YX0ljx0XyoBOAO-50" value="&lt;font style=&quot;font-size: 30px;&quot;&gt;18: Проверка прав доступа&amp;nbsp;&lt;br style=&quot;font-size: 30px;&quot;&gt;&lt;/font&gt;" style="text;html=1;align=center;verticalAlign=middle;resizable=0;points=[];autosize=1;strokeColor=none;fillColor=none;fontSize=30;strokeWidth=5;fontFamily=GOST type B;fontStyle=2" parent="1" vertex="1">
          <mxGeometry x="2809.9999999999995" y="1823" width="380" height="50" as="geometry" />
        </mxCell>
        <mxCell id="dgq1h4YX0ljx0XyoBOAO-51" value="" style="rounded=0;whiteSpace=wrap;html=1;rotation=90;fillColor=#ffffff;fontColor=#ffffff;strokeColor=#02131d;strokeWidth=3;fontFamily=GOST type B;fontStyle=2" parent="1" vertex="1">
          <mxGeometry x="1054.27" y="1829.86" width="350" height="30" as="geometry" />
        </mxCell>
        <mxCell id="dgq1h4YX0ljx0XyoBOAO-52" value="" style="html=1;verticalAlign=bottom;endArrow=open;dashed=1;endSize=8;curved=0;rounded=0;strokeWidth=5;fontStyle=2" parent="1" edge="1">
          <mxGeometry relative="1" as="geometry">
            <mxPoint x="2714" y="1889" as="sourcePoint" />
            <mxPoint x="1244" y="1889" as="targetPoint" />
          </mxGeometry>
        </mxCell>
        <mxCell id="dgq1h4YX0ljx0XyoBOAO-53" value="&lt;span style=&quot;color: rgb(0, 0, 0); font-family: &amp;quot;GOST type B&amp;quot;; font-size: 30px; font-variant-ligatures: normal; font-variant-caps: normal; font-weight: 400; letter-spacing: normal; orphans: 2; text-align: center; text-indent: 0px; text-transform: none; widows: 2; word-spacing: 0px; -webkit-text-stroke-width: 0px; background-color: rgb(251, 251, 251); text-decoration-thickness: initial; text-decoration-style: initial; text-decoration-color: initial; float: none; display: inline !important;&quot;&gt;Ответ от сервера&lt;/span&gt;" style="text;whiteSpace=wrap;html=1;fontStyle=2" parent="1" vertex="1">
          <mxGeometry x="2394" y="1841" width="320" height="60" as="geometry" />
        </mxCell>
        <mxCell id="dgq1h4YX0ljx0XyoBOAO-55" value="&lt;span style=&quot;color: rgb(0, 0, 0); font-family: &amp;quot;GOST type B&amp;quot;; font-size: 30px; font-variant-ligatures: normal; font-variant-caps: normal; font-weight: 400; letter-spacing: normal; orphans: 2; text-align: center; text-indent: 0px; text-transform: none; widows: 2; word-spacing: 0px; -webkit-text-stroke-width: 0px; background-color: rgb(251, 251, 251); text-decoration-thickness: initial; text-decoration-style: initial; text-decoration-color: initial; float: none; display: inline !important;&quot;&gt;19: Переход на страницу&lt;br&gt;&amp;nbsp;списка всех пользователей&lt;/span&gt;" style="text;whiteSpace=wrap;html=1;fontStyle=2" parent="1" vertex="1">
          <mxGeometry x="1253.5" y="1926" width="736.32" height="59" as="geometry" />
        </mxCell>
        <mxCell id="dgq1h4YX0ljx0XyoBOAO-60" value="" style="endArrow=classic;html=1;rounded=1;shadow=0;labelBackgroundColor=none;labelBorderColor=#5E5E5E;sketch=0;strokeWidth=5;fontSize=40;sourcePerimeterSpacing=1;targetPerimeterSpacing=1;jumpStyle=none;fontFamily=GOST type B;fontStyle=2" parent="1" edge="1">
          <mxGeometry width="50" height="50" relative="1" as="geometry">
            <mxPoint x="1245" y="2019" as="sourcePoint" />
            <mxPoint x="2215" y="2019" as="targetPoint" />
          </mxGeometry>
        </mxCell>
        <mxCell id="dgq1h4YX0ljx0XyoBOAO-63" value="" style="endArrow=open;endSize=12;dashed=1;html=1;rounded=1;shadow=0;labelBackgroundColor=none;labelBorderColor=#5E5E5E;sketch=0;strokeWidth=5;fontSize=40;fontColor=#000000;sourcePerimeterSpacing=1;targetPerimeterSpacing=1;jumpStyle=none;entryX=0.802;entryY=-0.065;entryDx=0;entryDy=0;exitX=0.53;exitY=-0.088;exitDx=0;exitDy=0;exitPerimeter=0;entryPerimeter=0;fontStyle=2" parent="1" edge="1">
          <mxGeometry x="0.25" y="90" width="160" relative="1" as="geometry">
            <mxPoint x="1748.81" y="1606.2" as="sourcePoint" />
            <mxPoint x="1747.81" y="1655.2" as="targetPoint" />
            <mxPoint as="offset" />
            <Array as="points">
              <mxPoint x="1805" y="1606.2" />
              <mxPoint x="1805" y="1636.2" />
              <mxPoint x="1805" y="1655.2" />
            </Array>
          </mxGeometry>
        </mxCell>
        <mxCell id="dgq1h4YX0ljx0XyoBOAO-64" value="" style="endArrow=classic;html=1;rounded=1;shadow=0;labelBackgroundColor=none;labelBorderColor=#5E5E5E;sketch=0;strokeWidth=5;fontSize=40;sourcePerimeterSpacing=1;targetPerimeterSpacing=1;jumpStyle=none;fontFamily=GOST type B;fontStyle=2" parent="1" edge="1">
          <mxGeometry width="50" height="50" relative="1" as="geometry">
            <mxPoint x="2215" y="2110.7799999999997" as="sourcePoint" />
            <mxPoint x="1245" y="2110.7799999999997" as="targetPoint" />
          </mxGeometry>
        </mxCell>
        <mxCell id="dgq1h4YX0ljx0XyoBOAO-65" value="" style="rounded=0;whiteSpace=wrap;html=1;rotation=90;fillColor=#ffffff;fontColor=#ffffff;strokeColor=#02131d;strokeWidth=3;fontFamily=GOST type B;fontStyle=2" parent="1" vertex="1">
          <mxGeometry x="1160.15" y="2166.73" width="141.59" height="30" as="geometry" />
        </mxCell>
        <mxCell id="dgq1h4YX0ljx0XyoBOAO-66" value="" style="endArrow=none;dashed=1;html=1;rounded=1;shadow=0;labelBackgroundColor=none;labelBorderColor=#5E5E5E;sketch=0;strokeWidth=5;fontSize=40;sourcePerimeterSpacing=1;targetPerimeterSpacing=1;jumpStyle=none;entryX=1;entryY=0.5;entryDx=0;entryDy=0;fontFamily=GOST type B;fontStyle=2" parent="1" edge="1">
          <mxGeometry width="50" height="50" relative="1" as="geometry">
            <mxPoint x="2731" y="1131" as="sourcePoint" />
            <mxPoint x="2730.62" y="938" as="targetPoint" />
          </mxGeometry>
        </mxCell>
        <mxCell id="dgq1h4YX0ljx0XyoBOAO-67" value="" style="endArrow=none;dashed=1;html=1;rounded=1;shadow=0;labelBackgroundColor=none;labelBorderColor=#5E5E5E;sketch=0;strokeWidth=5;fontSize=40;sourcePerimeterSpacing=1;targetPerimeterSpacing=1;jumpStyle=none;entryX=1;entryY=0.5;entryDx=0;entryDy=0;fontFamily=GOST type B;fontStyle=2" parent="1" edge="1">
          <mxGeometry width="50" height="50" relative="1" as="geometry">
            <mxPoint x="2731.16" y="1491" as="sourcePoint" />
            <mxPoint x="2730.7799999999997" y="1210.5" as="targetPoint" />
          </mxGeometry>
        </mxCell>
        <mxCell id="dgq1h4YX0ljx0XyoBOAO-68" value="" style="endArrow=none;dashed=1;html=1;rounded=1;shadow=0;labelBackgroundColor=none;labelBorderColor=#5E5E5E;sketch=0;strokeWidth=5;fontSize=40;sourcePerimeterSpacing=1;targetPerimeterSpacing=1;jumpStyle=none;entryX=1;entryY=0.5;entryDx=0;entryDy=0;fontFamily=GOST type B;fontStyle=2" parent="1" edge="1">
          <mxGeometry width="50" height="50" relative="1" as="geometry">
            <mxPoint x="2731.93" y="1816" as="sourcePoint" />
            <mxPoint x="2731.5499999999997" y="1570" as="targetPoint" />
          </mxGeometry>
        </mxCell>
        <mxCell id="dgq1h4YX0ljx0XyoBOAO-69" value="" style="endArrow=none;dashed=1;html=1;rounded=1;shadow=0;labelBackgroundColor=none;labelBorderColor=#5E5E5E;sketch=0;strokeWidth=5;fontSize=40;sourcePerimeterSpacing=1;targetPerimeterSpacing=1;jumpStyle=none;entryX=1;entryY=0.5;entryDx=0;entryDy=0;fontFamily=GOST type B;fontStyle=2" parent="1" edge="1">
          <mxGeometry width="50" height="50" relative="1" as="geometry">
            <mxPoint x="2229.57" y="2296" as="sourcePoint" />
            <mxPoint x="2229.7400000000002" y="2111" as="targetPoint" />
          </mxGeometry>
        </mxCell>
        <mxCell id="dgq1h4YX0ljx0XyoBOAO-70" value="" style="endArrow=none;dashed=1;html=1;rounded=1;shadow=0;labelBackgroundColor=none;labelBorderColor=#5E5E5E;sketch=0;strokeWidth=5;fontSize=40;sourcePerimeterSpacing=1;targetPerimeterSpacing=1;jumpStyle=none;entryX=1;entryY=0.5;entryDx=0;entryDy=0;fontFamily=GOST type B;fontStyle=2" parent="1" edge="1">
          <mxGeometry width="50" height="50" relative="1" as="geometry">
            <mxPoint x="1729" y="2296" as="sourcePoint" />
            <mxPoint x="1729.06" y="1670.99" as="targetPoint" />
          </mxGeometry>
        </mxCell>
        <mxCell id="dgq1h4YX0ljx0XyoBOAO-71" value="" style="endArrow=none;dashed=1;html=1;rounded=1;shadow=0;labelBackgroundColor=none;labelBorderColor=#5E5E5E;sketch=0;strokeWidth=5;fontSize=40;sourcePerimeterSpacing=1;targetPerimeterSpacing=1;jumpStyle=none;entryX=1;entryY=0.5;entryDx=0;entryDy=0;fontFamily=GOST type B;fontStyle=2" parent="1" edge="1">
          <mxGeometry width="50" height="50" relative="1" as="geometry">
            <mxPoint x="2732.93" y="2296" as="sourcePoint" />
            <mxPoint x="2732.5499999999997" y="1891" as="targetPoint" />
          </mxGeometry>
        </mxCell>
        <mxCell id="dgq1h4YX0ljx0XyoBOAO-73" value="" style="endArrow=none;dashed=1;html=1;rounded=1;shadow=0;labelBackgroundColor=none;labelBorderColor=#5E5E5E;sketch=0;strokeWidth=5;fontSize=40;sourcePerimeterSpacing=1;targetPerimeterSpacing=1;jumpStyle=none;entryX=1;entryY=0.5;entryDx=0;entryDy=0;fontFamily=GOST type B;fontStyle=2" parent="1" edge="1">
          <mxGeometry width="50" height="50" relative="1" as="geometry">
            <mxPoint x="1229" y="2103" as="sourcePoint" />
            <mxPoint x="1229.1500000000003" y="2026.5" as="targetPoint" />
          </mxGeometry>
        </mxCell>
        <mxCell id="dgq1h4YX0ljx0XyoBOAO-74" value="&lt;span style=&quot;color: rgb(0, 0, 0); font-family: &amp;quot;GOST type B&amp;quot;; font-size: 30px; font-variant-ligatures: normal; font-variant-caps: normal; font-weight: 400; letter-spacing: normal; orphans: 2; text-align: center; text-indent: 0px; text-transform: none; widows: 2; word-spacing: 0px; -webkit-text-stroke-width: 0px; background-color: rgb(251, 251, 251); text-decoration-thickness: initial; text-decoration-style: initial; text-decoration-color: initial; float: none; display: inline !important;&quot;&gt;13: Отправка запроса на сервер&lt;/span&gt;" style="text;whiteSpace=wrap;html=1;fontStyle=2" parent="1" vertex="1">
          <mxGeometry x="1765" y="1438" width="440" height="60" as="geometry" />
        </mxCell>
        <mxCell id="dgq1h4YX0ljx0XyoBOAO-76" value="" style="endArrow=none;dashed=1;html=1;rounded=1;shadow=0;labelBackgroundColor=none;labelBorderColor=#5E5E5E;sketch=0;strokeWidth=5;fontSize=40;sourcePerimeterSpacing=1;targetPerimeterSpacing=1;jumpStyle=none;entryX=1;entryY=0.5;entryDx=0;entryDy=0;fontFamily=GOST type B;fontStyle=2" parent="1" edge="1">
          <mxGeometry width="50" height="50" relative="1" as="geometry">
            <mxPoint x="1230.44" y="2296" as="sourcePoint" />
            <mxPoint x="1230.884999999998" y="2259.995000000001" as="targetPoint" />
          </mxGeometry>
        </mxCell>
      </root>
    </mxGraphModel>
  </diagram>
</mxfile>
